<svg width="45" height="45" viewBox="0 0 45 45" fill="none"
    xmlns="http://www.w3.org/2000/svg">
    <path d="M22.5487 3.75C13.3742 3.74882 5.5534 10.4025 4.0845 19.4586C2.61559 28.5148 7.93236 37.2993 16.6369 40.1981C17.5744 40.3669 17.91 39.7913 17.91 39.2963C17.91 38.8519 17.895 37.6744 17.8894 36.1087C12.6862 37.2337 11.5875 33.6 11.5875 33.6C11.245 32.4693 10.5086 31.4987 9.51187 30.8644C7.82437 29.7038 9.64125 29.73 9.64125 29.73C10.8425 29.8947 11.8998 30.6065 12.5044 31.6575C13.0161 32.588 13.8783 33.2755 14.8993 33.5674C15.9203 33.8593 17.0157 33.7313 17.9419 33.2119C18.0289 32.2631 18.451 31.3764 19.1325 30.7106C14.9812 30.24 10.6162 28.635 10.6162 21.4669C10.5932 19.6129 11.2817 17.8206 12.54 16.4588C11.9707 14.845 12.0377 13.0749 12.7275 11.5088C12.7275 11.5088 14.2969 11.0044 17.8687 13.4231C20.9322 12.5831 24.1653 12.5831 27.2287 13.4231C30.8025 11.0025 32.37 11.5088 32.37 11.5088C33.063 13.0741 33.1301 14.8455 32.5575 16.4588C33.8204 17.8204 34.5083 19.6174 34.4775 21.4744C34.4775 28.6613 30.1087 30.24 25.9425 30.7031C26.8412 31.622 27.3021 32.8825 27.2081 34.1644C27.2081 36.6656 27.1856 38.6831 27.1856 39.2963C27.1856 39.7969 27.5194 40.3781 28.4737 40.1944C37.1746 37.2907 42.4857 28.5056 41.0138 19.4518C39.5419 10.3981 31.7214 3.7479 22.5487 3.75Z" fill="black"/>
</svg>
