<svg width="30" height="30" viewBox="0 0 30 30" fill="none" xmlns="http://www.w3.org/2000/svg">
<path fill-rule="evenodd" clip-rule="evenodd" d="M15.3411 27.2895L20.2478 12.1689H10.4345L15.3411 27.2895Z" fill="#E24329"/>
<path fill-rule="evenodd" clip-rule="evenodd" d="M15.3411 27.2895L10.4345 12.1689H3.55789L15.3411 27.2895Z" fill="#FC6D26"/>
<path fill-rule="evenodd" clip-rule="evenodd" d="M3.5579 12.1689L2.06685 16.7639C1.93085 17.183 2.07981 17.6421 2.43587 17.9011L15.3411 27.2895L3.5579 12.1689Z" fill="#FCA326"/>
<path fill-rule="evenodd" clip-rule="evenodd" d="M3.55792 12.169H10.4345L7.47919 3.06202C7.32719 2.59336 6.6651 2.59348 6.5131 3.06202L3.55792 12.169Z" fill="#E24329"/>
<path fill-rule="evenodd" clip-rule="evenodd" d="M15.3411 27.2895L20.2478 12.1689H27.1244L15.3411 27.2895Z" fill="#FC6D26"/>
<path fill-rule="evenodd" clip-rule="evenodd" d="M27.1244 12.1689L28.6154 16.7639C28.7514 17.183 28.6025 17.6421 28.2464 17.9011L15.3411 27.2895L27.1244 12.1689Z" fill="#FCA326"/>
<path fill-rule="evenodd" clip-rule="evenodd" d="M27.1244 12.169H20.2478L23.2031 3.06202C23.3551 2.59336 24.0172 2.59348 24.1692 3.06202L27.1244 12.169Z" fill="#E24329"/>
</svg>
