<svg width="30" height="30" viewBox="0 0 30 30" fill="none" xmlns="http://www.w3.org/2000/svg">
<rect x="1.875" y="1.875" width="26.25" height="26.25" rx="13.125" fill="#1275B1"/>
<path d="M11.8299 9.08639C11.8299 9.96253 11.0705 10.6728 10.1337 10.6728C9.19691 10.6728 8.4375 9.96253 8.4375 9.08639C8.4375 8.21025 9.19691 7.5 10.1337 7.5C11.0705 7.5 11.8299 8.21025 11.8299 9.08639Z" fill="white"/>
<path d="M8.66946 11.8388H11.5689V20.625H8.66946V11.8388Z" fill="white"/>
<path d="M16.2371 11.8388H13.3376V20.625H16.2371C16.2371 20.625 16.2371 17.859 16.2371 16.1296C16.2371 15.0915 16.5916 14.0489 18.0058 14.0489C19.6041 14.0489 19.5945 15.4074 19.587 16.4598C19.5773 17.8354 19.6005 19.2392 19.6005 20.625H22.5V15.9879C22.4754 13.0269 21.7039 11.6626 19.1656 11.6626C17.6582 11.6626 16.7238 12.3469 16.2371 12.9661V11.8388Z" fill="white"/>
</svg>
