<svg width="25" height="25" viewBox="0 0 25 25" fill="none" xmlns="http://www.w3.org/2000/svg">
<path d="M4.0625 12.5C4.0625 10.7187 5.51041 9.27079 7.29166 9.27079H11.4583V7.29163H7.29166C4.41666 7.29163 2.08333 9.62496 2.08333 12.5C2.08333 15.375 4.41666 17.7083 7.29166 17.7083H11.4583V15.7291H7.29166C5.51041 15.7291 4.0625 14.2812 4.0625 12.5ZM8.33333 13.5416H16.6667V11.4583H8.33333V13.5416ZM17.7083 7.29163H13.5417V9.27079H17.7083C19.4896 9.27079 20.9375 10.7187 20.9375 12.5C20.9375 14.2812 19.4896 15.7291 17.7083 15.7291H13.5417V17.7083H17.7083C20.5833 17.7083 22.9167 15.375 22.9167 12.5C22.9167 9.62496 20.5833 7.29163 17.7083 7.29163Z" fill="#323232"/>
</svg>
