<svg width="45" height="45" viewBox="0 0 45 45" fill="none"
    xmlns="http://www.w3.org/2000/svg">
    <path d="M22.5 2.8125C11.6411 2.8125 2.8125 11.6411 2.8125 22.5C2.8125 33.3589 11.6411 42.1875 22.5 42.1875C33.3589 42.1875 42.1875 33.3589 42.1875 22.5C42.1875 11.6411 33.3589 2.8125 22.5 2.8125Z" fill="#F48024"/>
    <path d="M27.4792 25.8225L17.0275 24.3118L17.3898 22.0226L27.6102 23.9881L27.4792 25.8225Z" fill="white"/>
    <path d="M27.6642 23.3869L18.4149 19.0705L19.2628 17.2207L28.512 21.537L27.6642 23.3869Z" fill="white"/>
    <path d="M28.8974 21.0746L21.0355 14.523L22.3458 12.9815L30.2077 19.533L28.8974 21.0746Z" fill="white"/>
    <path d="M24.4269 10.9775L26.0455 9.74426L32.1346 17.9144L30.516 19.1476L24.4269 10.9775Z" fill="white"/>
    <path d="M27.51 28.8593H16.7192V26.547H27.51V28.8593Z" fill="white"/>
    <path d="M29.0515 24.2345V30.4007H15.1777V24.2345H12.8654V32.713H31.3638V24.2345H29.0515Z" fill="white"/>
</svg>