<svg width="30" height="30" viewBox="0 0 30 30" fill="none" xmlns="http://www.w3.org/2000/svg">
<path d="M15.0325 2.5C8.91615 2.49921 3.70226 6.93498 2.72299 12.9724C1.74372 19.0098 5.28823 24.8662 11.0912 26.7988C11.7162 26.9113 11.94 26.5275 11.94 26.1975C11.94 25.9013 11.93 25.1163 11.9262 24.0725C8.45749 24.8225 7.72499 22.4 7.72499 22.4C7.49663 21.6462 7.00571 20.9992 6.34124 20.5763C5.21624 19.8025 6.42749 19.82 6.42749 19.82C7.22834 19.9298 7.93318 20.4043 8.33624 21.105C8.67741 21.7253 9.25219 22.1837 9.93287 22.3783C10.6136 22.5729 11.3438 22.4875 11.9612 22.1413C12.0193 21.5088 12.3007 20.9176 12.755 20.4738C9.98749 20.16 7.07749 19.09 7.07749 14.3113C7.06213 13.0753 7.52111 11.8804 8.35999 10.9725C7.98043 9.89664 8.02513 8.71657 8.48499 7.6725C8.48499 7.6725 9.53124 7.33625 11.9125 8.94875C13.9548 8.38876 16.1102 8.38876 18.1525 8.94875C20.535 7.335 21.58 7.6725 21.58 7.6725C22.042 8.71607 22.0867 9.89697 21.705 10.9725C22.5469 11.8803 23.0055 13.0783 22.985 14.3163C22.985 19.1075 20.0725 20.16 17.295 20.4688C17.8941 21.0813 18.2014 21.9217 18.1387 22.7763C18.1387 24.4438 18.1237 25.7888 18.1237 26.1975C18.1237 26.5313 18.3462 26.9188 18.9825 26.7963C24.7831 24.8604 28.3238 19.0037 27.3425 12.9679C26.3612 6.93207 21.1476 2.4986 15.0325 2.5Z" fill="white"/>
</svg>
