<svg width="25" height="25" viewBox="0 0 25 25" fill="none" xmlns="http://www.w3.org/2000/svg">
<path d="M12.5271 2.08337C7.43014 2.08272 3.08523 5.77919 2.26917 10.8104C1.45311 15.8416 4.40688 20.7219 9.24271 22.3323C9.76355 22.4261 9.95001 22.1063 9.95001 21.8313C9.95001 21.5844 9.94167 20.9303 9.93855 20.0605C7.04792 20.6855 6.43751 18.6667 6.43751 18.6667C6.24721 18.0385 5.83811 17.4993 5.28438 17.1469C4.34688 16.5021 5.35626 16.5167 5.35626 16.5167C6.02363 16.6082 6.611 17.0036 6.94688 17.5875C7.23119 18.1045 7.71017 18.4865 8.27741 18.6486C8.84464 18.8108 9.45315 18.7397 9.96771 18.4511C10.0161 17.924 10.2506 17.4314 10.6292 17.0615C8.32292 16.8 5.89792 15.9084 5.89792 11.9261C5.88512 10.8961 6.26761 9.90035 6.96667 9.14379C6.65037 8.24724 6.68762 7.26385 7.07084 6.39379C7.07084 6.39379 7.94271 6.11358 9.92709 7.45733C11.629 6.99067 13.4252 6.99067 15.1271 7.45733C17.1125 6.11254 17.9833 6.39379 17.9833 6.39379C18.3683 7.26344 18.4056 8.24752 18.0875 9.14379C18.7891 9.90028 19.1713 10.8986 19.1542 11.9303C19.1542 15.923 16.7271 16.8 14.4125 17.0573C14.9118 17.5678 15.1679 18.2681 15.1156 18.9803C15.1156 20.3698 15.1031 21.4907 15.1031 21.8313C15.1031 22.1094 15.2885 22.4323 15.8188 22.3303C20.6526 20.7171 23.6032 15.8365 22.7854 10.8066C21.9677 5.77676 17.623 2.08221 12.5271 2.08337Z" fill="black"/>
</svg>
