<svg width="45" height="45" viewBox="0 0 45 45" fill="none"
    xmlns="http://www.w3.org/2000/svg">
    <path fill-rule="evenodd" clip-rule="evenodd" d="M23.0117 40.9342L30.3717 18.2534H15.6517L23.0117 40.9342Z" fill="#E24329" />
    <path fill-rule="evenodd" clip-rule="evenodd" d="M23.0117 40.9342L15.6517 18.2533H5.33685L23.0117 40.9342Z" fill="#FC6D26" />
    <path fill-rule="evenodd" clip-rule="evenodd" d="M5.33684 18.2534L3.10027 25.1459C2.89627 25.7745 3.11969 26.4632 3.65379 26.8517L23.0117 40.9342L5.33684 18.2534Z" fill="#FCA326" />
    <path fill-rule="evenodd" clip-rule="evenodd" d="M5.33685 18.2534H15.6517L11.2188 4.59299C10.9908 3.88999 9.99761 3.89018 9.76961 4.59299L5.33685 18.2534Z" fill="#E24329" />
    <path fill-rule="evenodd" clip-rule="evenodd" d="M23.0117 40.9342L30.3717 18.2533H40.6865L23.0117 40.9342Z" fill="#FC6D26" />
    <path fill-rule="evenodd" clip-rule="evenodd" d="M40.6865 18.2534L42.9231 25.1459C43.1271 25.7745 42.9036 26.4632 42.3696 26.8517L23.0117 40.9342L40.6865 18.2534Z" fill="#FCA326" />
    <path fill-rule="evenodd" clip-rule="evenodd" d="M40.6866 18.2534H30.3717L34.8047 4.59299C35.0327 3.88999 36.0258 3.89018 36.2538 4.59299L40.6866 18.2534Z" fill="#E24329" />
</svg>