<svg width="45" height="45" viewBox="0 0 45 45" fill="none"
    xmlns="http://www.w3.org/2000/svg">
    <rect x="2.8125" y="2.8125" width="39.375" height="39.375" rx="19.6875" fill="#1275B1"/>
    <path d="M17.7448 13.6296C17.7448 14.9438 16.6057 16.0092 15.2005 16.0092C13.7954 16.0092 12.6562 14.9438 12.6562 13.6296C12.6562 12.3154 13.7954 11.25 15.2005 11.25C16.6057 11.25 17.7448 12.3154 17.7448 13.6296Z" fill="white"/>
    <path d="M13.0042 17.7583H17.3534V30.9375H13.0042V17.7583Z" fill="white"/>
    <path d="M24.3557 17.7583H20.0064V30.9375H24.3557C24.3557 30.9375 24.3557 26.7885 24.3557 24.1943C24.3557 22.6373 24.8873 21.0734 27.0087 21.0734C29.4061 21.0734 29.3917 23.1111 29.3805 24.6897C29.3659 26.7531 29.4008 28.8589 29.4008 30.9375H33.75V23.9818C33.7132 19.5404 32.5558 17.4939 28.7484 17.4939C26.4873 17.4939 25.0857 18.5204 24.3557 19.4491V17.7583Z" fill="white"/>
</svg>