<svg width="30" height="30" viewBox="0 0 30 30" fill="none" xmlns="http://www.w3.org/2000/svg">
<path d="M15 1.875C7.76074 1.875 1.875 7.76074 1.875 15C1.875 22.2393 7.76074 28.125 15 28.125C22.2393 28.125 28.125 22.2393 28.125 15C28.125 7.76074 22.2393 1.875 15 1.875Z" fill="#F48024"/>
<path d="M18.3194 17.215L11.3517 16.2079L11.5932 14.6818L18.4068 15.9921L18.3194 17.215Z" fill="white"/>
<path d="M18.4428 15.5913L12.2766 12.7137L12.8419 11.4805L19.008 14.358L18.4428 15.5913Z" fill="white"/>
<path d="M19.2649 14.0498L14.0237 9.68205L14.8972 8.65436L20.1385 13.0221L19.2649 14.0498Z" fill="white"/>
<path d="M16.2846 7.31836L17.3637 6.49622L21.4231 11.943L20.344 12.7651L16.2846 7.31836Z" fill="white"/>
<path d="M18.34 19.2396H11.1462V17.698H18.34V19.2396Z" fill="white"/>
<path d="M19.3677 16.1564V20.2672H10.1184V16.1564H8.5769V21.8087H20.9092V16.1564H19.3677Z" fill="white"/>
</svg>
